<svg
    viewBox="0 0 70 17"
    fill="#fff"
>
  <path
    d="M38.3176 3.99512V12.7867L38.301 12.7612C38.301 12.7612 37.4855 14.1961 36.1105 14.1961C34.998 14.1961 34.6616 13.3321 34.6616 12.4821C34.6616 11.6321 34.6756 4.00276 34.6756 4.00276H30.8564V8.86686C30.8564 8.86686 30.8564 12.3827 30.8564 13.3627C30.8564 14.3426 31.2082 16.8658 34.2066 16.8658C36.387 16.8658 37.6804 15.4475 38.3163 14.4586V14.8485C38.3163 15.8935 39.1638 16.7409 40.2087 16.7409H42.1202V3.99767H38.3176V3.99512Z" />
  <path
    d="M69.4699 12.7024C69.4699 12.7024 68.6212 14.1959 67.1889 14.1959C66.1618 14.1959 65.7706 13.4874 65.6954 12.71V5.64263C65.6865 5.62734 63.3099 3.88916 60.2324 3.88916C56.937 3.88916 53.8748 6.4085 53.8748 10.6991C53.8748 13.8952 55.3288 16.8643 58.1004 16.8643C60.1712 16.8643 61.5475 15.748 62.1413 15.1453C62.5822 16.0462 63.4653 16.8643 65.2086 16.8643C68.6913 16.8643 70.0001 13.388 70.0001 13.388L69.4699 12.7024ZM61.722 13.6671C61.722 13.6671 61.2008 14.1959 60.3967 14.1959C58.7873 14.1959 57.8519 13.0171 57.8519 10.0837C57.8519 7.46109 58.6955 5.62989 60.3075 5.62989C61.2365 5.62989 61.722 6.55887 61.722 7.47001V8.5379V13.2172V13.6671Z" />
  <path
    d="M14.0583 16.7395L8.88204 0H6.86351C5.76504 0 4.79401 0.71362 4.46778 1.76239L0 16.8644H1.07043C5.96893 16.8644 8.17734 14.7172 9.17386 12.7764L10.2558 16.7395H14.0583ZM4.54042 13.2721L6.87753 4.36456L8.67432 10.9464C7.75044 11.6932 6.35633 12.6209 4.54042 13.2721Z" />
  <path
    d="M29.233 13.9119C29.233 13.9119 28.8226 14.1973 27.8516 14.1973C26.7391 14.1973 26.4027 13.3193 26.4027 12.4693C26.4027 11.8857 26.4091 8.38767 26.4142 6.25446H28.8698V4.00272H26.4218L26.4384 1.07178H25.7464C24.1713 1.07178 22.5695 4.00272 20.5879 4.00272C20.5752 4.00272 20.5765 4.00272 20.5879 4.004C20.5892 4.30346 21.2277 5.6071 22.6014 6.08115C22.6001 8.63234 22.6001 12.9867 22.6001 13.3626C22.6001 14.3426 22.9518 16.8658 25.9503 16.8658C28.4518 16.8658 29.8306 14.9721 29.8306 14.9721L29.233 13.9119Z" />
  <path
    d="M52.0256 3.87012C51.1718 3.87012 49.7076 4.76852 48.4791 6.93614V5.88737C48.4791 4.84242 47.6317 3.995 46.5868 3.995H44.6753V16.7382H48.4779V9.38412C48.9889 8.47043 49.9332 7.38598 51.5426 7.38598H53.1814V4.16321C53.1508 4.11733 52.9418 3.87012 52.0256 3.87012Z" />
  <path d="M19.3455 0H17.7501C16.5216 0 15.5264 0.995245 15.5264 2.22369V16.7395H19.329L19.3455 0Z" />
</svg>
